<svg width="84" height="84" viewBox="0 0 84 84" fill="none" xmlns="http://www.w3.org/2000/svg">
<circle cx="42" cy="42" r="42" fill="#BCB8DD"/>
<path d="M41.6087 26C38.1569 26 35.3478 28.809 35.3478 32.2609C35.3478 32.4988 35.392 32.7256 35.4185 32.9565H38.2011C38.1552 32.7311 38.1304 32.4988 38.1304 32.2609C38.1304 30.3437 39.6901 28.7826 41.6087 28.7826C43.5273 28.7826 45.087 30.3437 45.087 32.2609C45.087 32.4988 45.0622 32.7311 45.0163 32.9565H47.7989C47.8253 32.7256 47.8696 32.4988 47.8696 32.2609C47.8696 31.7175 47.7775 31.1988 47.6467 30.6957C48.1011 30.3695 48.6524 30.1739 49.2609 30.1739C50.8145 30.1739 52.0435 31.4029 52.0435 32.9565H54.8261C54.8261 29.8994 52.318 27.3913 49.2609 27.3913C48.1986 27.3913 47.2079 27.7092 46.3587 28.231C45.2093 26.8785 43.5181 26 41.6087 26ZM31.1739 30.1739C28.8853 30.1739 27 32.0592 27 34.3478V53.8261C27 56.1315 28.8685 58 31.1739 58H54.8261C56.3635 58 57.6087 56.7548 57.6087 55.2174V38.5217C57.6087 36.9843 56.3635 35.7391 54.8261 35.7391H43.6957H31.1739C30.3878 35.7391 29.7826 35.134 29.7826 34.3478C29.7826 33.5617 30.3878 32.9565 31.1739 32.9565H32.5652V30.1739H31.1739ZM52.0435 44.087C53.5809 44.087 54.8261 45.3322 54.8261 46.8696C54.8261 48.407 53.5809 49.6522 52.0435 49.6522C50.5061 49.6522 49.2609 48.407 49.2609 46.8696C49.2609 45.3322 50.5061 44.087 52.0435 44.087Z" fill="white"/>
</svg>
