<svg width="84" height="84" viewBox="0 0 84 84" fill="none" xmlns="http://www.w3.org/2000/svg">
<circle cx="42" cy="42" r="42" fill="#BCB8DD"/>
<path fill-rule="evenodd" clip-rule="evenodd" d="M41.4406 26.0016C40.9954 26.0245 40.5861 26.3073 40.4248 26.7523L39.3553 29.6927C39.1387 30.286 39.4442 30.9447 40.0375 31.1613C40.6308 31.3764 41.2881 31.0695 41.5032 30.4761L42.5757 27.5328C42.7923 26.9395 42.4838 26.2837 41.8905 26.0671C41.7421 26.0134 41.5891 25.994 41.4406 26.0016ZM33.9245 27.2796C33.7759 27.2849 33.6266 27.3201 33.4836 27.3869C32.9116 27.6538 32.6625 28.3342 32.9295 28.9062L34.2522 31.7422C34.5191 32.3158 35.2025 32.5633 35.7745 32.2964C36.3464 32.0294 36.5925 31.3505 36.3256 30.777L35.0029 27.938C34.8027 27.509 34.37 27.2637 33.9245 27.2796ZM46.0761 31.1137C45.9275 31.1191 45.7782 31.1542 45.6352 31.2209L42.7961 32.5436C42.2241 32.8105 41.9781 33.491 42.245 34.0629C42.5119 34.6349 43.1923 34.884 43.7643 34.617L46.6004 33.2943C47.1724 33.0274 47.4214 32.347 47.1545 31.775C46.9543 31.3449 46.5216 31.0974 46.0761 31.1137ZM28.0855 32.2278C27.6402 32.2505 27.2309 32.5365 27.0696 32.9815C26.8531 33.5749 27.1585 34.2322 27.7519 34.4472L30.6952 35.5167C31.2885 35.7333 31.9458 35.4278 32.1609 34.8345C32.3775 34.2412 32.069 33.5839 31.4757 33.3688L28.5353 32.2964C28.387 32.2422 28.2339 32.2203 28.0855 32.2278ZM37.7824 33.7084C37.4563 33.7225 37.134 33.7997 36.832 33.9408C36.2295 34.2214 35.7634 34.7305 35.5361 35.3558C35.3073 35.9812 35.3374 36.6719 35.6196 37.2744C37.4285 41.1562 40.9223 48.6454 40.9223 48.6454C40.9223 48.6454 38.9847 47.8444 37.258 47.1321C36.5701 46.8484 35.7949 46.8599 35.1131 47.1589C34.4328 47.4594 33.9051 48.0243 33.6504 48.7229L33.6474 48.7259C33.1425 50.1124 33.8489 51.6496 35.2293 52.1697C37.5874 53.0589 40.7674 54.255 40.7674 54.255C43.3146 55.1824 43.9787 55.4948 44.9381 57.3175C45.3438 57.9429 46.1496 58.1754 46.8268 57.8597C49.6836 56.5601 56.1304 53.552 56.1304 53.552C57.3643 51.8375 57.5738 49.5885 56.6815 47.6743C56.0607 46.3442 55.3162 44.7419 54.5932 43.1938C53.8428 41.5846 52.4829 40.3421 50.8157 39.7351C49.1471 39.128 47.3083 39.2081 45.7007 39.9585C44.8115 40.3719 44.1873 40.6616 44.1873 40.6616C43.4201 40.8339 42.7562 40.7095 42.4237 39.9972C41.8334 38.7282 40.8961 36.7181 40.1686 35.1563C39.8864 34.5522 39.3759 34.0846 38.7505 33.8574C38.4379 33.7437 38.1084 33.6943 37.7824 33.7084ZM31.8868 37.7272C31.7383 37.7325 31.5889 37.7677 31.4459 37.8344L28.6098 39.1601C28.0378 39.427 27.7888 40.1059 28.0557 40.6794C28.3226 41.2514 29.0031 41.4975 29.575 41.2306L32.4141 39.9108C32.9861 39.6439 33.2351 38.9605 32.9682 38.3885C32.768 37.9595 32.3324 37.7113 31.8868 37.7272Z" fill="white"/>
</svg>
