<svg width="84" height="84" viewBox="0 0 84 84" fill="none" xmlns="http://www.w3.org/2000/svg">
<circle cx="42" cy="42" r="42" fill="#BCB8DD"/>
<path d="M41.8191 34.2789C38.1904 34.2789 36.2925 32.4785 36.0885 32.2729L38.2615 30.0737C38.3094 30.1201 39.4731 31.188 41.8191 31.188C44.1651 31.188 45.3288 30.1201 45.3783 30.0737L47.5512 32.2729C47.3456 32.4785 45.4478 34.2789 41.8191 34.2789ZM38.7282 25C38.3183 25 37.9252 25.1628 37.6354 25.4527C37.3456 25.7425 37.1827 26.1356 37.1827 26.5455C37.1827 26.9553 37.3456 27.3484 37.6354 27.6383C37.9252 27.9281 38.3183 28.0909 38.7282 28.0909C39.1381 28.0909 39.5312 27.9281 39.821 27.6383C40.1108 27.3484 40.2736 26.9553 40.2736 26.5455C40.2736 26.1356 40.1108 25.7425 39.821 25.4527C39.5312 25.1628 39.1381 25 38.7282 25ZM44.91 25C44.5001 25 44.107 25.1628 43.8172 25.4527C43.5274 25.7425 43.3645 26.1356 43.3645 26.5455C43.3645 26.9553 43.5274 27.3484 43.8172 27.6383C44.107 27.9281 44.5001 28.0909 44.91 28.0909C45.3199 28.0909 45.713 27.9281 46.0028 27.6383C46.2926 27.3484 46.4555 26.9553 46.4555 26.5455C46.4555 26.1356 46.2926 25.7425 46.0028 25.4527C45.713 25.1628 45.3199 25 44.91 25ZM59.5918 44.2409L55.2182 37.6727L49.0982 35.0145C48.4027 35.5555 47.1973 36.3282 45.4973 36.8382L50.0502 38.9106L41.8191 41.8949L33.6174 38.9029L38.2182 36.8691C36.5182 36.3591 35.2973 35.6018 34.5864 35.0455L28.42 37.6727L24 44.3027L27.91 45.7694V53.8907L41.8191 59L55.7282 53.8892V45.8961L59.5918 44.2409ZM46.8109 46.3427L44.6164 44.1482L53.5769 40.7884L54.9555 42.85L46.8109 46.3427ZM30.0628 40.7884L39.4592 44.312L38.1255 46.3118L28.7291 42.7882L30.0628 40.7884Z" fill="white"/>
</svg>
