<svg width="200" height="48" viewBox="0 0 200 48" fill="none" xmlns="http://www.w3.org/2000/svg">
<path d="M27.0091 21.2132H17.4091L7.03282 8.44648V21.2132H0V0.0224609H9.80752L20.007 12.5816V0.0224609H27.0091V21.2132Z" fill="#101828"/>
<path d="M28.6699 0H51.3979V6.45637H35.7027V8.50857H47.9852V14.7267H35.7027V21.2138H28.6699V0Z" fill="#101828"/>
<path d="M53.0488 0.0224609H81.0264V7.02454H70.5579V21.2132H63.5558V7.02454H53.0488V0.0224609Z" fill="#101828"/>
<path d="M14.6652 37.3854C16.5175 37.3854 17.4399 36.6245 17.4399 35.095C17.4399 34.7491 17.3938 34.457 17.3015 34.2187C17.2093 33.9728 17.0786 33.7806 16.8942 33.6269C16.7097 33.4732 16.5329 33.3502 16.3484 33.2503C16.164 33.1504 15.9488 33.0812 15.7028 33.0504C15.4492 33.0197 15.2416 32.9966 15.0802 32.9736C14.9188 32.9505 14.742 32.9428 14.5345 32.9428H7.01746V37.3777H14.6498L14.6652 37.3854ZM0 26.7324H14.8804C15.2801 26.7324 15.6644 26.7401 16.0256 26.7632C16.3869 26.7862 16.8942 26.8477 17.5475 26.963C18.2008 27.0783 18.7926 27.232 19.3307 27.4472C19.861 27.6624 20.4298 27.9622 21.037 28.3696C21.6442 28.7693 22.1515 29.2535 22.5589 29.7992C22.9739 30.3526 23.3121 31.0674 23.5811 31.9436C23.8501 32.8199 23.9885 33.796 23.9885 34.8721C23.9885 35.9481 23.8655 36.9319 23.6119 37.8158C23.3582 38.6998 23.0354 39.4376 22.6357 40.0371C22.236 40.629 21.7518 41.1516 21.183 41.6051C20.6219 42.0586 20.0685 42.4122 19.5228 42.6581C18.9771 42.9118 18.4083 43.1116 17.8165 43.2653C17.2247 43.4191 16.7174 43.519 16.2946 43.5651C15.8719 43.6189 15.4799 43.642 15.1187 43.642H7.03282V47.9308H0V26.7478V26.7324Z" fill="#101828"/>
<path d="M40.5593 36.7244C42.3118 36.7244 43.188 36.0634 43.188 34.7337C43.188 33.527 42.2733 32.9198 40.444 32.9198H32.6887V36.7244H40.567H40.5593ZM25.6482 26.7324H41.2203C41.62 26.7324 42.0043 26.7401 42.3656 26.7632C42.7268 26.7862 43.2341 26.8477 43.8874 26.963C44.5407 27.0783 45.1326 27.2243 45.6706 27.4165C46.2009 27.6086 46.7697 27.9007 47.3769 28.2927C47.9841 28.6847 48.4914 29.1459 48.8988 29.6839C49.3138 30.2143 49.652 30.8983 49.921 31.7207C50.1901 32.5432 50.3284 33.4809 50.3284 34.5262C50.3284 37.8697 49.0295 40.2524 46.4315 41.682L50.7742 47.9308L42.6576 47.9001L39.0374 42.9195H32.6656V47.9308H25.6328V26.7478L25.6482 26.7324Z" fill="#101828"/>
<path d="M59.0309 26.7324H51.998V47.9154H59.0309V26.7324Z" fill="#101828"/>
<path d="M88.0912 47.9154H78.4912L68.1149 35.1488V47.9154H61.082V26.7324H70.8896L81.0891 39.2839V26.7324H88.0912V47.9154Z" fill="#101828"/>
<path d="M89.75 26.7324H117.72V33.7345H107.251V47.9154H100.249V33.7345H89.75V26.7324Z" fill="#101828"/>
<path d="M134.054 37.3854C135.906 37.3854 136.829 36.6245 136.829 35.095C136.829 34.7491 136.782 34.457 136.69 34.2187C136.598 33.9728 136.467 33.7806 136.283 33.6269C136.098 33.4732 135.922 33.3502 135.737 33.2503C135.553 33.1504 135.337 33.0812 135.091 33.0504C134.838 33.0197 134.63 32.9966 134.477 32.9736C134.315 32.9505 134.131 32.9428 133.931 32.9428H126.414V37.3777H134.046L134.054 37.3854ZM119.389 26.7324H134.269C134.669 26.7324 135.053 26.7401 135.414 26.7632C135.776 26.7862 136.283 26.8477 136.936 26.963C137.589 27.0783 138.181 27.232 138.719 27.4472C139.25 27.6624 139.818 27.9622 140.426 28.3696C141.033 28.7693 141.54 29.2535 141.948 29.7992C142.363 30.3526 142.701 31.0674 142.97 31.9436C143.239 32.8199 143.377 33.796 143.377 34.8721C143.377 35.9481 143.254 36.9319 143.001 37.8158C142.747 38.6998 142.424 39.4376 142.024 40.0371C141.625 40.629 141.14 41.1516 140.572 41.6051C140.011 42.0586 139.457 42.4122 138.912 42.6581C138.366 42.9118 137.797 43.1116 137.205 43.2653C136.613 43.4191 136.106 43.519 135.683 43.5651C135.261 43.6189 134.869 43.642 134.507 43.642H126.422V47.9308H119.389V26.7478V26.7324Z" fill="#101828"/>
<path d="M159.941 36.7244C161.694 36.7244 162.57 36.0634 162.57 34.7337C162.57 33.527 161.655 32.9198 159.826 32.9198H152.071V36.7244H159.949H159.941ZM145.03 26.7324H160.602C161.002 26.7324 161.386 26.7401 161.748 26.7632C162.109 26.7862 162.616 26.8477 163.269 26.963C163.923 27.0783 164.515 27.2243 165.053 27.4165C165.583 27.6086 166.152 27.9007 166.759 28.2927C167.366 28.6847 167.873 29.1459 168.281 29.6839C168.696 30.2143 169.034 30.8983 169.303 31.7207C169.572 32.5432 169.71 33.4809 169.71 34.5262C169.71 37.8697 168.411 40.2524 165.814 41.682L170.164 47.9308L162.047 47.9001L158.427 42.9195H152.055V47.9308H145.022V26.7478L145.03 26.7324Z" fill="#101828"/>
<path d="M185.383 42.4586C187.512 42.4586 189.164 42.0282 190.332 41.1596C191.501 40.2988 192.085 38.9768 192.085 37.2089C192.085 35.4411 191.47 34.196 190.24 33.3044C189.01 32.4051 187.366 31.9593 185.29 31.9593C184.207 31.9593 183.246 32.0746 182.423 32.3052C181.601 32.5358 180.917 32.8816 180.387 33.3428C179.856 33.804 179.457 34.3574 179.195 35.003C178.934 35.6486 178.803 36.3788 178.803 37.2089C178.803 38.8 179.357 40.0682 180.463 41.029C181.57 41.982 183.207 42.4586 185.383 42.4586ZM185.113 26.4022C187.027 26.4022 188.718 26.5098 190.186 26.7173C191.654 26.9249 193.015 27.2861 194.26 27.7857C195.505 28.293 196.527 28.9463 197.327 29.7611C198.118 30.5758 198.741 31.598 199.179 32.8432C199.625 34.0807 199.84 35.5334 199.84 37.2013C199.84 38.8691 199.64 40.2834 199.248 41.4901C198.856 42.6968 198.295 43.7191 197.557 44.5492C196.827 45.387 195.859 46.0557 194.66 46.5707C193.461 47.0856 192.108 47.4469 190.601 47.6698C189.095 47.8927 187.335 48.0003 185.321 48.0003C180.333 48.0003 176.705 47.0933 174.445 45.2717C172.185 43.4501 171.048 40.6293 171.048 36.8093C171.048 33.2659 172.208 30.645 174.522 28.9463C176.836 27.2477 180.363 26.3945 185.113 26.3945" fill="#101828"/>
<path d="M88.3821 7.03274H83.2324V0.0537109H88.3821V7.03274ZM96.737 21.206V12.8281H90.6188V7.46316H98.4971V15.4106H199.047V21.2137H96.7447L96.737 21.206Z" fill="#101828"/>
</svg>
